<!DOCTYPE svg PUBLIC "-//W3C//DTD SVG 1.1//EN" "http://www.w3.org/Graphics/SVG/1.1/DTD/svg11.dtd">
<!-- Uploaded to: SVG Repo, www.svgrepo.com, Transformed by: SVG Repo Mixer Tools -->
<svg height="256px" width="256px" version="1.1" id="Layer_1" xmlns="http://www.w3.org/2000/svg" xmlns:xlink="http://www.w3.org/1999/xlink" viewBox="0 0 512.00 512.00" xml:space="preserve" fill="#000000">
<g id="SVGRepo_bgCarrier" stroke-width="0"/>
<g id="SVGRepo_tracerCarrier" stroke-linecap="round" stroke-linejoin="round" stroke="#CCCCCC" stroke-width="1.024"/>
<g id="SVGRepo_iconCarrier"> <circle style="fill:#299ae0;" cx="256" cy="256" r="256"/> <path style="fill:#2753aa;" d="M275.784,511.195c110.033-8.657,200.504-86.881,227.445-190.712L361.624,178.878l-95.28,123.668 l33.356,33.356l-143.888,55.322L275.784,511.195z"/> <path style="fill:#00A94C;" d="M296.439,113.693H171.613c-11.729,0-21.237,9.509-21.237,21.237v242.14 c0,11.729,9.509,21.237,21.237,21.237h168.774c11.729,0,21.237-9.509,21.237-21.237V178.878L296.439,113.693z"/> <path style="fill:#00CE8C;" d="M317.676,178.878h43.948l-65.184-65.184v43.948C296.439,169.37,305.947,178.878,317.676,178.878z"/> <path style="fill:#FFFFFF;" d="M185.556,248.463v86.566h140.89v-86.566H185.556z M319.548,276.508h-75.469v-21.149h75.469V276.508z M244.079,283.403h75.469v17.627h-75.469V283.403z M237.184,301.028h-44.732v-17.627h44.732V301.028z M237.184,255.359v21.149 h-44.732v-21.149H237.184z M192.452,307.924h44.732v20.209h-44.732L192.452,307.924L192.452,307.924z M244.079,328.133v-20.209 h75.469v20.209L244.079,328.133L244.079,328.133z"/> </g>
</svg>